HIERARCHY
ROOT Hips
{
	OFFSET 1.693964 105.470886 -1.111724
	CHANNELS 6 Xposition Yposition Zposition Xrotation Yrotation Zrotation
	JOINT Chest
	{
		OFFSET 0.278170 13.568321 1.406225
		CHANNELS 3 Xrotation Yrotation Zrotation
		JOINT Chest2
		{
			OFFSET -0.473678 21.310753 2.166528
			CHANNELS 3 Xrotation Yrotation Zrotation
			JOINT Chest3
			{
				OFFSET -0.446322 14.917084 -0.318505
				CHANNELS 3 Xrotation Yrotation Zrotation
				JOINT Neck
				{
					OFFSET 0.384885 17.220779 1.382985
					CHANNELS 3 Xrotation Yrotation Zrotation
					JOINT Head
					{
						OFFSET -0.447340 10.380798 1.366220
						CHANNELS 3 Xrotation Yrotation Zrotation
						End Site
						{
							OFFSET -0.441938 10.390289 1.293949
						}
					}
				}
				JOINT LeftCollar
				{
					OFFSET 4.590206 12.896713 3.795960
					CHANNELS 3 Xrotation Yrotation Zrotation
					JOINT LeftUpArm
					{
						OFFSET 14.072577 -5.675156 -8.846161
						CHANNELS 3 Xrotation Yrotation Zrotation
						JOINT LeftLowArm
						{
							OFFSET 4.013695 -33.519852 0.196563
							CHANNELS 3 Xrotation Yrotation Zrotation
							JOINT LeftHand
							{
								OFFSET -1.555498 -28.186508 10.200414
								CHANNELS 3 Xrotation Yrotation Zrotation
								End Site
								{
									OFFSET -0.339964 -6.160324 2.229358
								}
							}
						}
					}
				}
				JOINT RightCollar
				{
					OFFSET -3.820223 13.062653 4.072034
					CHANNELS 3 Xrotation Yrotation Zrotation
					JOINT RightUpArm
					{
						OFFSET -14.341259 -6.023041 -8.157670
						CHANNELS 3 Xrotation Yrotation Zrotation
						JOINT RightLowArm
						{
							OFFSET -5.333553 -33.292053 -1.710915
							CHANNELS 3 Xrotation Yrotation Zrotation
							JOINT RightHand
							{
								OFFSET 1.025496 -28.437340 9.550984
								CHANNELS 3 Xrotation Yrotation Zrotation
								End Site
								{
									OFFSET 0.224127 -6.215263 2.087461
								}
							}
						}
					}
				}
			}
		}
	}
	JOINT LeftUpLeg
	{
		OFFSET 10.016856 -0.223976 0.177641
		CHANNELS 3 Xrotation Yrotation Zrotation
		JOINT LeftLowLeg
		{
			OFFSET 2.467608 -47.116390 -4.236237
			CHANNELS 3 Xrotation Yrotation Zrotation
			JOINT LeftFoot
			{
				OFFSET 0.549664 -42.938499 -12.512027
				CHANNELS 3 Xrotation Yrotation Zrotation
				JOINT LeftToe
				{
					OFFSET 0.825927 -15.733069 17.645052
					CHANNELS 3 Xrotation Yrotation Zrotation
					End Site
					{
						OFFSET 1.192274 -0.948508 23.605885
					}
				}
			}
		}
	}
	JOINT RightUpLeg
	{
		OFFSET -10.016865 0.223785 -0.177662
		CHANNELS 3 Xrotation Yrotation Zrotation
		JOINT RightLowLeg
		{
			OFFSET -1.759621 -47.316036 -1.452529
			CHANNELS 3 Xrotation Yrotation Zrotation
			JOINT RightFoot
			{
				OFFSET 0.460944 -42.378094 -14.299150
				CHANNELS 3 Xrotation Yrotation Zrotation
				JOINT RightToe
				{
					OFFSET -3.253078 -18.777832 14.013124
					CHANNELS 3 Xrotation Yrotation Zrotation
					End Site
					{
						OFFSET -5.099257 -5.382293 22.462963
					}
				}
			}
		}
	}
}
MOTION
Frames: 11
Frame Time: 0.033333
-14.882473 101.615532 -7.247458 3.682305 -42.891228 -9.662777 -5.464568 3.156241 -12.586681 -1.056056 -0.571080 -0.974066 0.115342 -2.859642 -0.518312 6.811888 4.836015 -7.326689 -0.000002 0.000003 0.000000 3.135748 -26.742188 22.878620 -57.961948 -29.112489 -4.279995 -66.028812 1.714603 13.308963 0.000000 -0.000002 -0.000002 -2.534039 12.280062 -43.109675 -17.240804 30.745086 -71.119386 2.564143 -20.295793 -25.659720 0.000000 -0.000000 -0.000001 -2.103728 -2.071720 20.277087 106.881375 -4.154652 12.558335 11.224721 3.657104 -12.528610 -0.000001 0.000004 0.000004 0.538802 -0.622363 9.951481 4.106602 3.649734 8.834372 -6.669306 -9.803628 8.609340 0.000001 -0.000001 -0.000001 
-14.901104 101.574638 -7.355406 4.249111 -42.757848 -9.364072 -5.985424 3.175486 -12.207552 -1.177959 -0.651363 -0.921385 0.154693 -2.777559 -0.753556 6.998361 4.778909 -7.477625 0.000000 -0.000004 -0.000000 3.183177 -26.730755 22.881622 -57.789916 -28.681242 -4.515492 -65.911039 1.194287 14.328089 -0.000001 -0.000001 -0.000003 -2.499333 12.306579 -43.290999 -17.301156 30.834254 -71.235212 2.611439 -20.080838 -25.410187 -0.000002 -0.000002 -0.000001 -2.418775 -2.028910 20.279352 106.882891 -4.448425 12.167695 11.406687 4.063551 -12.570236 0.000000 0.000001 -0.000001 0.250412 -0.726579 10.004015 4.075202 3.499698 8.728715 -6.446391 -8.928102 8.887638 0.000001 -0.000008 -0.000003 
-14.918541 101.536545 -7.461554 4.110325 -42.390015 -9.258817 -5.789605 3.142364 -12.199835 -1.328734 -0.743171 -0.812086 0.069894 -2.838807 -0.962745 7.244123 4.575156 -7.387385 -0.000003 -0.000001 0.000001 3.058547 -26.589389 22.631004 -57.849366 -27.976974 -5.289331 -66.493182 1.871113 12.239459 0.000001 -0.000003 -0.000000 -2.511504 12.259236 -43.413779 -17.366886 30.590980 -71.172333 2.517999 -19.998487 -25.395121 0.000001 0.000002 0.000001 -2.214833 -1.886621 20.008996 106.795274 -4.197707 12.428737 11.286436 3.726605 -12.598947 -0.000001 0.000004 0.000002 0.500595 -0.762040 9.738275 3.952262 3.429081 8.723027 -6.390979 -8.885933 8.736147 -0.000003 -0.000001 -0.000001 
-14.928347 101.496521 -7.563568 4.391521 -42.608025 -9.219563 -6.026092 3.173052 -12.114791 -1.416586 -0.757566 -0.795115 0.099696 -2.835992 -0.941992 7.250615 4.721954 -7.489583 -0.000002 -0.000001 -0.000002 3.278619 -27.012437 22.859806 -57.726170 -28.028320 -5.132894 -66.539034 1.419998 13.260741 0.000000 -0.000002 -0.000002 -2.546071 12.137340 -43.456389 -17.363919 30.912391 -71.267956 2.381028 -19.852963 -25.419705 -0.000000 -0.000000 -0.000001 -2.182589 -1.862625 20.073402 106.955688 -4.763775 11.864264 11.255657 4.116467 -12.491149 -0.000001 0.000001 0.000003 0.244868 -0.757222 9.897827 4.074209 3.600244 8.558510 -6.216450 -8.579682 8.901530 -0.000001 -0.000004 -0.000000 
-14.943180 101.470230 -7.666140 4.350500 -42.083510 -9.000951 -5.417099 3.186998 -12.671906 -1.478141 -0.846611 -0.714416 -0.057102 -3.363253 -0.790906 7.049523 4.727566 -7.500133 -0.000002 0.000002 0.000005 3.121973 -26.773722 22.776036 -58.124944 -28.129596 -5.437251 -66.522279 1.430296 13.134275 0.000000 -0.000002 -0.000003 -2.655348 12.009198 -43.441666 -17.224236 30.733946 -71.538828 2.973644 -19.945658 -25.261735 -0.000003 0.000000 0.000001 -2.029609 -1.766267 19.786568 106.864095 -4.802799 11.826228 11.514489 4.776657 -12.557641 -0.000001 -0.000003 -0.000002 0.520764 -0.757127 9.690870 3.555620 3.526870 8.610113 -6.240850 -8.637428 8.992730 0.000001 -0.000009 -0.000000 
-14.954437 101.445457 -7.765096 4.581286 -41.887949 -8.950810 -5.651491 3.186996 -12.442842 -1.746757 -0.976388 -0.504422 0.180062 -3.391575 -0.981693 7.133567 4.826538 -7.528518 -0.000002 0.000003 0.000001 3.083465 -26.856789 22.593263 -57.534973 -27.908250 -5.214475 -66.840033 1.002328 13.744206 0.000003 -0.000006 -0.000003 -2.657797 11.980259 -43.482668 -17.036187 30.897727 -71.854259 3.413473 -19.903344 -25.101415 0.000002 0.000002 0.000001 -2.136646 -1.792811 19.814623 106.889722 -4.879831 11.758014 11.829100 4.940056 -12.774760 0.000001 -0.000001 -0.000003 0.399176 -0.754526 9.807671 3.501933 3.550820 8.487149 -6.038425 -8.350622 8.926090 0.000001 0.000000 0.000002 
-14.962362 101.420090 -7.856248 4.785813 -41.607579 -8.820015 -5.790636 3.181066 -12.268056 -1.615611 -0.786136 -0.787814 0.115369 -3.519536 -0.877643 7.098969 4.603591 -7.194001 0.000000 0.000001 -0.000002 3.033932 -26.701544 22.681781 -57.578454 -27.154185 -6.126301 -67.491599 1.395487 12.526760 0.000002 -0.000005 -0.000004 -2.773376 11.791095 -43.636036 -17.163936 30.843413 -71.705443 3.698041 -19.982084 -25.013319 0.000001 -0.000001 0.000001 -1.972390 -1.720901 19.560846 106.890193 -5.099705 11.635698 11.890297 5.042317 -12.850674 -0.000001 -0.000003 -0.000001 0.516644 -0.746055 9.666862 3.093867 3.593467 8.663463 -6.039278 -8.474556 8.906704 0.000001 -0.000001 0.000001 
-14.968098 101.402237 -7.944777 5.286042 -42.070123 -8.771259 -6.299888 3.202097 -12.087785 -1.671603 -0.783135 -0.771170 0.399496 -3.132621 -0.901640 7.231627 4.685931 -7.171372 -0.000002 0.000002 -0.000001 2.862201 -25.907362 22.523771 -57.980342 -27.487302 -6.661626 -67.753243 1.354840 11.307294 0.000000 -0.000001 -0.000003 -2.697866 11.649700 -43.563042 -16.589783 30.457070 -72.055340 4.123346 -19.743659 -25.255265 -0.000001 -0.000002 -0.000000 -2.309237 -1.832411 19.911369 107.143224 -5.479826 11.235721 11.618427 5.167069 -12.610459 0.000001 -0.000001 -0.000001 0.194900 -0.736473 9.833568 2.959403 3.577189 8.886549 -6.198072 -9.135218 8.552609 -0.000002 0.000000 0.000001 
-14.973518 101.379738 -8.036276 5.160360 -42.036775 -8.693312 -6.494934 3.218006 -12.030463 -1.295042 -0.656321 -0.953887 0.145606 -3.199207 -0.764592 7.276503 4.466442 -6.923053 -0.000001 0.000001 0.000002 2.721720 -25.738415 22.339539 -57.891618 -27.172057 -6.844217 -67.742527 1.626950 11.083821 -0.000001 -0.000002 -0.000003 -2.851544 11.451835 -43.578086 -16.672495 30.537875 -71.993575 4.573738 -20.051093 -25.004585 0.000001 -0.000004 -0.000000 -1.889248 -1.761546 19.587895 106.913334 -5.607236 11.129735 11.537734 5.325377 -12.459999 -0.000000 0.000000 -0.000001 0.327335 -0.702312 9.756549 2.978562 3.654797 8.643788 -6.020754 -8.803165 8.675399 -0.000002 0.000005 0.000002 
-14.974390 101.360413 -8.130776 4.572413 -41.810580 -8.723119 -5.954661 3.192741 -12.286173 -1.230872 -0.596818 -1.035157 -0.063043 -3.328190 -0.628104 7.496571 4.449906 -7.047815 0.000000 0.000001 0.000001 2.589925 -25.882449 21.612126 -57.683987 -27.314787 -6.240982 -67.623449 2.000835 10.723664 -0.000000 -0.000003 -0.000001 -2.866065 11.487964 -43.575767 -16.778348 31.092811 -72.366005 4.961807 -20.214095 -24.389315 -0.000001 -0.000004 -0.000001 -1.819603 -1.738960 19.341707 107.206390 -5.067614 11.673528 11.522763 4.989664 -12.514906 -0.000003 -0.000002 0.000001 0.627588 -0.691667 9.466838 3.020471 3.547703 8.646173 -5.968655 -8.214166 9.108988 0.000001 -0.000004 -0.000002 
-14.970650 101.333061 -8.220886 4.621544 -41.932263 -8.653502 -6.180724 3.249478 -12.312481 -1.403797 -0.732912 -0.845780 0.192782 -3.367440 -0.878192 7.472136 4.311943 -6.915369 -0.000000 -0.000003 0.000001 2.259655 -25.878783 21.088421 -57.091123 -26.466636 -6.327554 -68.284338 3.011814 8.751596 0.000000 -0.000005 0.000001 -3.005066 11.626469 -43.441403 -17.082981 30.996269 -72.223527 4.241160 -20.318003 -24.171280 -0.000000 0.000002 0.000001 -2.081736 -1.810820 19.375473 107.555371 -4.678654 12.046820 11.084661 4.778500 -12.131150 -0.000002 0.000002 0.000007 0.508874 -0.712893 9.418272 2.864472 3.445625 8.874317 -5.952999 -8.230021 9.018578 0.000003 -0.000001 -0.000001 
